<svg width="346" height="344" viewBox="0 0 346 344" fill="none" xmlns="http://www.w3.org/2000/svg">
<path d="M230.957 143.846C230.719 140.212 231.421 136.248 233.772 133.677C236.109 131.092 240.096 129.9 244.215 129.412C248.335 128.924 252.568 129.178 255.091 131.306C257.598 133.445 258.373 137.494 259.275 141.285C260.161 145.087 261.184 148.645 260.336 151.89C259.474 155.119 256.725 158.047 253.268 159.904C249.805 161.79 245.634 162.605 242.226 161.471C238.805 160.322 236.147 157.226 234.25 154.024C232.341 150.806 231.195 147.479 230.957 143.846Z" fill="#9093D1"/>
<path d="M66.756 195.303C66.2803 188.036 67.6854 180.107 72.3852 174.967C77.0613 169.795 85.032 167.412 93.2712 166.436C101.511 165.46 109.978 165.969 115.023 170.224C120.037 174.501 121.587 182.601 123.391 190.182C125.162 197.786 127.21 204.902 125.513 211.393C123.791 217.851 118.292 223.706 111.376 227.422C104.452 231.192 96.1107 232.821 89.2933 230.556C82.4521 228.258 77.1343 222.066 73.3412 215.661C69.5242 209.223 67.232 202.57 66.756 195.303Z" fill="#F7859C"/>
<path d="M160.999 285.555C160.522 278.288 161.928 270.359 166.628 265.219C171.304 260.047 179.275 257.664 187.515 256.688C195.753 255.712 204.221 256.221 209.265 260.474C214.279 264.752 215.83 272.852 217.634 280.433C219.404 288.038 221.454 295.154 219.756 301.645C218.034 308.102 212.534 313.958 205.618 317.673C198.694 321.442 190.354 323.072 183.536 320.807C176.694 318.51 171.376 312.318 167.584 305.911C163.767 299.473 161.474 292.822 160.999 285.555Z" fill="#F7859C"/>
<path d="M114.879 85.4412C114.153 74.0922 116.37 61.7052 123.731 53.6655C131.055 45.5767 143.523 41.8352 156.407 40.291C169.29 38.7469 182.526 39.5212 190.404 46.1537C198.23 52.8221 200.634 65.4695 203.435 77.3055C206.184 89.1774 209.368 100.287 206.697 110.427C203.989 120.518 195.377 129.677 184.555 135.496C173.72 141.4 160.676 143.966 150.023 140.444C139.333 136.873 131.035 127.215 125.122 117.219C119.171 107.173 115.604 96.7903 114.879 85.4412Z" fill="#9FD8E5"/>
<path d="M156.959 195.304C156.482 188.037 157.888 180.108 162.588 174.968C167.263 169.796 175.235 167.413 183.474 166.437C191.712 165.461 200.181 165.97 205.225 170.223C210.239 174.502 211.79 182.602 213.594 190.183C215.364 197.787 217.413 204.903 215.716 211.394C213.994 217.851 208.494 223.707 201.578 227.422C194.654 231.191 186.314 232.821 179.496 230.556C172.654 228.259 167.336 222.067 163.544 215.66C159.727 209.224 157.434 202.571 156.959 195.304Z" fill="#FFDBB4"/>
</svg>
